<svg width="241" height="241" viewBox="0 0 241 241" fill="none" xmlns="http://www.w3.org/2000/svg">
<path d="M137.383 159.582L205.557 227.755" stroke="#1AA090" stroke-width="16"/>
<path d="M159.582 137.383L227.755 205.556" stroke="#1AA090" stroke-width="16"/>
<path d="M227.755 205.556C230.699 208.5 232.353 212.493 232.353 216.656C232.353 220.819 230.699 224.811 227.755 227.755" stroke="#1AA090" stroke-width="16" stroke-linecap="round" stroke-linejoin="round"/>
<path d="M205.556 227.755C208.5 230.699 212.493 232.353 216.656 232.353C220.819 232.353 224.811 230.699 227.755 227.755" stroke="#1AA090" stroke-width="16" stroke-linecap="round" stroke-linejoin="round"/>
<path d="M78.6355 8.00003C87.9115 8.00003 97.0967 9.82706 105.667 13.3768C114.236 16.9266 122.023 22.1296 128.582 28.6887C135.142 35.2478 140.345 43.0346 143.894 51.6045C147.444 60.1744 149.271 69.3596 149.271 78.6356C149.271 87.9116 147.444 97.0967 143.894 105.667C140.345 114.237 135.142 122.023 128.582 128.582C122.023 135.142 114.236 140.345 105.667 143.894C97.0967 147.444 87.9115 149.271 78.6355 149.271C59.9018 149.271 41.9354 141.829 28.6887 128.582C15.4419 115.336 8 97.3693 8 78.6356C8 69.3596 9.82704 60.1744 13.3768 51.6045C16.9266 43.0346 22.1296 35.2478 28.6887 28.6887C35.2478 22.1296 43.0346 16.9266 51.6045 13.3768C60.1744 9.82706 69.3596 8.00003 78.6355 8.00003Z" stroke="#1AA090" stroke-width="16" stroke-linecap="round" stroke-linejoin="round"/>
<path d="M137.383 159.582L159.582 137.383" stroke="#1AA090" stroke-width="16" stroke-linecap="round" stroke-linejoin="round"/>
<path d="M148.482 148.482L128.583 128.582" stroke="#1AA090" stroke-width="16" stroke-linecap="round" stroke-linejoin="round"/>
<path d="M156.331 178.529L178.529 156.331" stroke="#1AA090" stroke-width="16" stroke-linecap="round" stroke-linejoin="round"/>
<path d="M78.6355 39.3935C89.0431 39.3935 99.0245 43.528 106.384 50.8873C113.743 58.2465 117.877 68.2279 117.877 78.6355" stroke="#1AA090" stroke-width="16" stroke-linecap="round" stroke-linejoin="round"/>
</svg>
