<svg width="100" height="100" viewBox="0 0 100 100" fill="none" xmlns="http://www.w3.org/2000/svg">
<path d="M83.9375 34.4584L90.45 27.9459L84.5584 22.0542L77.4417 29.1667C73.0667 26.5417 67.9667 25 62.5 25C46.4209 25 33.3334 38.0834 33.3334 54.1667C33.3334 70.25 46.4209 83.3334 62.5 83.3334C78.5792 83.3334 91.6667 70.25 91.6667 54.1667C91.6634 46.8585 88.9032 39.8205 83.9375 34.4584ZM62.5 75C51.0125 75 41.6667 65.6542 41.6667 54.1667C41.6667 42.6792 51.0125 33.3334 62.5 33.3334C73.9875 33.3334 83.3334 42.6792 83.3334 54.1667C83.3334 65.6542 73.9875 75 62.5 75Z" fill="#1AA090"/>
<path d="M58.3334 41.6667H66.6667V58.3333H58.3334V41.6667ZM54.1667 12.5H70.8334V20.8333H54.1667V12.5ZM12.5 33.3333H29.1667V41.6667H12.5V33.3333ZM12.5 66.6667H29.1667V75H12.5V66.6667ZM8.33337 50H24.9584V58.3333H8.33337V50Z" fill="#1AA090"/>
</svg>
